<?xml version="1.0" encoding="UTF-8"?>
<svg width="16px" height="16px" viewBox="0 0 16 16" version="1.1" xmlns="http://www.w3.org/2000/svg" xmlns:xlink="http://www.w3.org/1999/xlink">
    <!-- Generator: Sketch 41.2 (35397) - http://www.bohemiancoding.com/sketch -->
    <title>inline-star-default</title>
    <desc>Created with Sketch.</desc>
    <defs></defs>
    <g id="Artborts" stroke="none" stroke-width="1" fill="none" fill-rule="evenodd">
        <g id="Components" transform="translate(-328.000000, -2384.000000)" fill="#C3CBCB">
            <g id="inline-star-default" transform="translate(328.000000, 2384.000000)">
                <path d="M6.00000023,13.5000003 C5.03896708,14.0389389 3.66066729,14.1163298 3.8581984,13.0299087 L4.49999995,9.5 L2.52496937,7.80711663 C1.68275203,7.08521605 1.86764525,6.30933785 2.96067493,6.06914822 L5.49999999,5.51114 L7.05446297,2.74412453 C7.59560258,1.78087117 8.46377801,1.78578066 8.9946538,2.75704185 L10.4999997,5.51114005 L13.0393248,6.06914824 C14.1221756,6.3071011 14.3251646,7.07843018 13.4750304,7.80711663 L11.5,9.5 L12.1418016,13.0299087 C12.3396291,14.1179601 10.9614817,14.0474689 10.0000002,13.5000003 L8.03428304,12.4572157 L6.00000023,13.5000003 Z M8.02288724,11.0167115 L5.49999998,12.5 L5.99999998,9.04597807 L3.49999998,7.0467327 L6.49999998,6.5 L8.02288721,3.5 L9.49999998,6.5 L12.5,7.04673266 L9.99999998,9.04597807 L10.5,12.5 L8.02288724,11.0167115 L8.02288724,11.0167115 Z" id="Combined-Shape"></path>
            </g>
        </g>
    </g>
</svg>