<svg version="1.1" id="Layer_1" xmlns="http://www.w3.org/2000/svg" x="0" y="0" viewBox="0 0 392.35 78" xml:space="preserve"><style>.st0{fill:#fff}</style><path class="st0" d="M392.35 35.3v-4.93h-5.84v-7.09h-4.93v7.09H377v4.93h4.59v14.21c0 4.15 3.36 7.51 7.51 7.51h3.26v-4.93h-3.26c-1.43 0-2.58-1.15-2.58-2.58V35.3h5.83zm-28.63-5.39a9.53 9.53 0 019.55 9.55v8.01c0 5.24-4.26 9.55-9.55 9.55h-1.85c-5.24 0-9.55-4.31-9.55-9.55v-8.01c0-5.29 4.31-9.55 9.55-9.55h1.85zm-6.48 9.55v8.01c0 2.57 2.11 4.62 4.62 4.62h1.85c2.57 0 4.62-2.05 4.62-4.62v-8.01c0-2.57-2.05-4.62-4.62-4.62h-1.85c-2.51 0-4.62 2.05-4.62 4.62zm-10.33 0v8.01a9.53 9.53 0 01-9.55 9.55h-.62c-2.21 0-4.26-.77-5.85-2.11V65.5h-4.93V30.37h4.93v1.64a9.058 9.058 0 015.85-2.11h.62c5.29.01 9.55 4.27 9.55 9.56zm-4.93 0c0-2.52-2.05-4.62-4.62-4.62h-1.85c-2.52 0-4.62 2.11-4.62 4.62v8.01c0 2.57 2.11 4.62 4.62 4.62h1.85c2.57 0 4.62-2.05 4.62-4.62v-8.01zm-39.01 8.94c.46 2.11 2.31 3.7 4.57 3.7h3.44c2.52 0 4.62-2.11 4.62-4.62 0-2.88-1.75-4.57-4.42-5.6l-4.52-1.69c-4.21-1.64-7.7-4.42-7.7-9.66a9.53 9.53 0 019.55-9.55h2.41c4.42 0 8.17 3.03 9.24 7.19l-4.78 1.39c-.41-2.11-2.26-3.65-4.47-3.65h-2.41c-2.57 0-4.62 2.05-4.62 4.62 0 2 .72 3.54 4.67 5.08l4.52 1.75c4.57 1.85 7.45 5.34 7.45 10.12 0 5.29-4.31 9.55-9.55 9.55h-3.44c-4.47 0-8.22-3.08-9.3-7.24l4.74-1.39zm-9.4-13.1v-4.93h-5.84v-7.09h-4.93v7.09h-4.59v4.93h4.59v14.21c0 4.15 3.36 7.51 7.51 7.51h3.26v-4.93h-3.26c-1.43 0-2.58-1.15-2.58-2.58V35.3h5.84zm-19.65 4.16v17.1h-4.93v-17.1c0-2.57-2.05-4.62-4.62-4.62h-1.85c-2.52 0-4.62 2.05-4.62 4.62v17.1h-4.93V21.43h4.93v10.58a9.058 9.058 0 015.85-2.11h.62c5.29.01 9.55 4.27 9.55 9.56zm-27.34-9.09v26.04c0 5.29-4.21 9.55-9.5 9.55h-1.95c-4.47 0-8.22-3.08-9.24-7.19l4.72-1.39c.46 2.05 2.31 3.65 4.52 3.65h1.95c2.52 0 4.57-2.11 4.57-4.62v-3.08a9.058 9.058 0 01-5.85 2.11h-.62c-5.24 0-9.55-4.26-9.55-9.55v-6.42c0-5.29 4.31-9.55 9.55-9.55h.62c2.21 0 4.26.77 5.85 2.05v-1.59h4.93zm-4.93 15.51v-6.42c0-2.57-2.05-4.62-4.62-4.62h-1.85c-2.52 0-4.62 2.05-4.62 4.62v6.42c0 2.52 2.11 4.62 4.62 4.62h1.85c2.57 0 4.62-2.1 4.62-4.62zm-37.53-15.51v17.1c0 2.57 2.05 4.62 4.62 4.62h1.85c2.57 0 4.62-2.05 4.62-4.62v-17.1h4.93v17.1a9.53 9.53 0 01-9.55 9.55h-1.85a9.53 9.53 0 01-9.55-9.55v-17.1h4.93zm-20.25-.46a9.53 9.53 0 019.55 9.55v8.01c0 5.24-4.26 9.55-9.55 9.55h-1.85c-5.24 0-9.55-4.31-9.55-9.55v-8.01c0-5.29 4.31-9.55 9.55-9.55h1.85zm-6.47 9.55v8.01c0 2.57 2.11 4.62 4.62 4.62h1.85c2.57 0 4.62-2.05 4.62-4.62v-8.01c0-2.57-2.05-4.62-4.62-4.62h-1.85c-2.52 0-4.62 2.05-4.62 4.62zm-10.64 0v17.1h-4.93v-17.1c0-2.57-2.05-4.62-4.62-4.62h-1.85c-2.52 0-4.62 2.05-4.62 4.62v17.1h-4.93V21.43h4.93v10.58a9.058 9.058 0 015.85-2.11h.62c5.29.01 9.55 4.27 9.55 9.56zm-26.15-18.03v4.93h-9.88v30.2h-4.93v-30.2h-9.88v-4.93h24.69z"/><circle class="st0" cx="68.85" cy="68.85" r="9.75"/><path class="st0" d="M78 19.5H0v4.87h26.81V78h4.88V24.37h4.87V78h4.87V24.37h4.88V78h4.87V24.37H78zM0 9.75h78v4.87H0zM0 0h78v4.87H0z"/></svg>