<?xml version="1.0" encoding="UTF-8" standalone="no"?>
<svg width="16px" height="16px" viewBox="0 0 16 16" version="1.1" xmlns="http://www.w3.org/2000/svg" xmlns:xlink="http://www.w3.org/1999/xlink" xmlns:sketch="http://www.bohemiancoding.com/sketch/ns">
    <!-- Generator: Sketch 3.3.3 (12072) - http://www.bohemiancoding.com/sketch -->
    <title>action-movedown-hover</title>
    <desc>Created with Sketch.</desc>
    <defs></defs>
    <g id="Page-1" stroke="none" stroke-width="1" fill="none" fill-rule="evenodd" sketch:type="MSPage">
        <g id="Icons" sketch:type="MSArtboardGroup" transform="translate(-301.000000, -778.000000)" fill="#22A3C0">
            <g id="action-movedown-copy" sketch:type="MSLayerGroup" transform="translate(309.000000, 786.000000) scale(1, -1) translate(-309.000000, -786.000000) translate(301.000000, 778.000000)">
                <path d="M1,3.00947762 L1,3.00947762 L1,12.9905224 C1,14.1068145 1.8953964,15 3.00947762,15 L12.9905224,15 C14.1068145,15 15,14.1046036 15,12.9905224 L15,3.00947762 C15,1.89318549 14.1046036,1 12.9905224,1 L3.00947762,1 C1.89318549,1 1,1.8953964 1,3.00947762 L1,3.00947762 Z M0,3.00947762 C0,1.34738902 1.33663106,0 3.00947762,0 L12.9905224,0 C14.652611,0 16,1.33663106 16,3.00947762 L16,12.9905224 C16,14.652611 14.6633689,16 12.9905224,16 L3.00947762,16 C1.34738902,16 0,14.6633689 0,12.9905224 L0,3.00947762 L0,3.00947762 Z" id="Shape" sketch:type="MSShapeGroup"></path>
                <polygon id="Rectangle-537-Copy-4" sketch:type="MSShapeGroup" points="8 6 11 10 5 10 "></polygon>
            </g>
        </g>
    </g>
</svg>