<?xml version="1.0" encoding="utf-8"?>
<!-- Generator: Adobe Illustrator 26.1.0, SVG Export Plug-In . SVG Version: 6.00 Build 0)  -->
<svg version="1.1" id="Layer_2" xmlns="http://www.w3.org/2000/svg" xmlns:xlink="http://www.w3.org/1999/xlink" x="0px" y="0px"
	 viewBox="0 0 282.2 282.2" style="enable-background:new 0 0 282.2 282.2;" xml:space="preserve">
<style type="text/css">
	.st0{fill:#4E55FD;}
	.st1{fill:#272A7F;}
</style>
<g>
	<path class="st0" d="M47.1,37.2v16h188.4c1.7,0,3.3,0.3,4.8,1c2.2,0.9,4.1,2.5,5.4,4.5c0.7,1,1.2,2.1,1.5,3.2
		c0.4,1.1,0.5,2.3,0.5,3.7V235c0,1.7-0.3,3.3-1,4.8c-0.9,2.2-2.5,4.1-4.5,5.4c-1,0.7-2.1,1.2-3.2,1.5c-1.1,0.4-2.3,0.5-3.7,0.5H47.1
		c-1.7,0-3.3-0.3-4.8-1c-2.2-0.9-4.1-2.5-5.4-4.5c-0.7-1-1.2-2.1-1.5-3.2c-0.4-1.1-0.5-2.3-0.5-3.7l0-169.5c0-1.7,0.3-3.3,1-4.8
		c0.9-2.2,2.5-4.1,4.5-5.4c1-0.7,2.1-1.2,3.2-1.5c1.1-0.4,2.3-0.5,3.7-0.5V37.2v-16c-6.1,0-11.9,1.2-17.2,3.5c-8,3.4-14.7,9-19.5,16
		C8,44.3,6.1,48.2,4.8,52.3c-1.3,4.2-2,8.6-2,13.2l0,169.5c0,6.1,1.2,11.9,3.5,17.2c3.4,8,9,14.7,16,19.5c3.5,2.4,7.4,4.3,11.6,5.6
		c4.2,1.3,8.6,2,13.2,2h188.4c6.1,0,11.9-1.2,17.2-3.5c8-3.4,14.7-9,19.5-16c2.4-3.5,4.3-7.4,5.6-11.6c1.3-4.2,2-8.6,2-13.2V65.5
		c0-6.1-1.2-11.9-3.5-17.2c-3.4-8-9-14.7-16-19.5c-3.5-2.4-7.4-4.3-11.6-5.6c-4.2-1.3-8.6-2-13.2-2H47.1V37.2z"/>
	<circle class="st0" cx="164.8" cy="126.7" r="14.1"/>
	<path class="st0" d="M164.8,112.6v0.5c3.8,0,7.2,1.5,9.6,4c2.5,2.5,4,5.9,4,9.6c0,3.8-1.5,7.2-4,9.6c-2.5,2.5-5.9,4-9.6,4
		c-3.8,0-7.2-1.5-9.6-4c-2.5-2.5-4-5.9-4-9.6c0-3.8,1.5-7.2,4-9.6c2.5-2.5,5.9-4,9.6-4V112.6v-0.5c-8.1,0-14.6,6.5-14.6,14.6
		c0,8.1,6.5,14.6,14.6,14.6c8.1,0,14.6-6.5,14.6-14.6c0-8.1-6.5-14.6-14.6-14.6V112.6z"/>
	<circle class="st0" cx="211.9" cy="126.7" r="14.1"/>
	<path class="st0" d="M211.9,112.6v0.5c3.8,0,7.2,1.5,9.6,4c2.5,2.5,4,5.9,4,9.6c0,3.8-1.5,7.2-4,9.6c-2.5,2.5-5.9,4-9.6,4
		c-3.8,0-7.2-1.5-9.6-4c-2.5-2.5-4-5.9-4-9.6c0-3.8,1.5-7.2,4-9.6c2.5-2.5,5.9-4,9.6-4V112.6v-0.5c-8.1,0-14.6,6.5-14.6,14.6
		c0,8.1,6.5,14.6,14.6,14.6c8.1,0,14.6-6.5,14.6-14.6c0-8.1-6.5-14.6-14.6-14.6V112.6z"/>
	<circle class="st1" cx="164.8" cy="173.8" r="14.1"/>
	<path class="st0" d="M164.8,159.7v0.5c3.8,0,7.2,1.5,9.6,4c2.5,2.5,4,5.9,4,9.6c0,3.8-1.5,7.2-4,9.6c-2.5,2.5-5.9,4-9.6,4
		c-3.8,0-7.2-1.5-9.6-4c-2.5-2.5-4-5.9-4-9.6c0-3.8,1.5-7.2,4-9.6c2.5-2.5,5.9-4,9.6-4V159.7v-0.5c-8.1,0-14.6,6.5-14.6,14.6
		c0,8.1,6.5,14.6,14.6,14.6c8.1,0,14.6-6.5,14.6-14.6c0-8.1-6.5-14.6-14.6-14.6V159.7z"/>
	<circle class="st0" cx="211.9" cy="173.8" r="14.1"/>
	<path class="st0" d="M211.9,159.7v0.5c3.8,0,7.2,1.5,9.6,4c2.5,2.5,4,5.9,4,9.6c0,3.8-1.5,7.2-4,9.6c-2.5,2.5-5.9,4-9.6,4
		c-3.8,0-7.2-1.5-9.6-4c-2.5-2.5-4-5.9-4-9.6c0-3.8,1.5-7.2,4-9.6c2.5-2.5,5.9-4,9.6-4V159.7v-0.5c-8.1,0-14.6,6.5-14.6,14.6
		c0,8.1,6.5,14.6,14.6,14.6c8.1,0,14.6-6.5,14.6-14.6c0-8.1-6.5-14.6-14.6-14.6V159.7z"/>
	<circle class="st0" cx="70.6" cy="173.8" r="14.1"/>
	<path class="st0" d="M70.6,159.7v0.5c3.8,0,7.2,1.5,9.6,4c2.5,2.5,4,5.9,4,9.6c0,3.8-1.5,7.2-4,9.6c-2.5,2.5-5.9,4-9.6,4
		c-3.8,0-7.2-1.5-9.6-4c-2.5-2.5-4-5.9-4-9.6c0-3.8,1.5-7.2,4-9.6c2.5-2.5,5.9-4,9.6-4V159.7v-0.5c-8.1,0-14.6,6.5-14.6,14.6
		c0,8.1,6.5,14.6,14.6,14.6c8.1,0,14.6-6.5,14.6-14.6c0-8.1-6.5-14.6-14.6-14.6V159.7z"/>
	<circle class="st0" cx="117.7" cy="173.8" r="14.1"/>
	<path class="st0" d="M117.7,159.7v0.5c3.8,0,7.2,1.5,9.6,4c2.5,2.5,4,5.9,4,9.6c0,3.8-1.5,7.2-4,9.6c-2.5,2.5-5.9,4-9.6,4
		c-3.8,0-7.2-1.5-9.6-4c-2.5-2.5-4-5.9-4-9.6c0-3.8,1.5-7.2,4-9.6c2.5-2.5,5.9-4,9.6-4V159.7v-0.5c-8.1,0-14.6,6.5-14.6,14.6
		c0,8.1,6.5,14.6,14.6,14.6c8.1,0,14.6-6.5,14.6-14.6c0-8.1-6.5-14.6-14.6-14.6V159.7z"/>
	<circle class="st0" cx="70.6" cy="220.9" r="14.1"/>
	<path class="st0" d="M70.6,206.8v0.5c3.8,0,7.2,1.5,9.6,4c2.5,2.5,4,5.9,4,9.6c0,3.8-1.5,7.2-4,9.6c-2.5,2.5-5.9,4-9.6,4
		c-3.8,0-7.2-1.5-9.6-4c-2.5-2.5-4-5.9-4-9.6c0-3.8,1.5-7.2,4-9.6c2.5-2.5,5.9-4,9.6-4V206.8v-0.5c-8.1,0-14.6,6.5-14.6,14.6
		c0,8.1,6.5,14.6,14.6,14.6c8.1,0,14.6-6.5,14.6-14.6c0-8.1-6.5-14.6-14.6-14.6V206.8z"/>
	<circle class="st0" cx="117.7" cy="220.9" r="14.1"/>
	<path class="st0" d="M117.7,206.8v0.5c3.8,0,7.2,1.5,9.6,4c2.5,2.5,4,5.9,4,9.6c0,3.8-1.5,7.2-4,9.6c-2.5,2.5-5.9,4-9.6,4
		c-3.8,0-7.2-1.5-9.6-4c-2.5-2.5-4-5.9-4-9.6c0-3.8,1.5-7.2,4-9.6c2.5-2.5,5.9-4,9.6-4V206.8v-0.5c-8.1,0-14.6,6.5-14.6,14.6
		c0,8.1,6.5,14.6,14.6,14.6c8.1,0,14.6-6.5,14.6-14.6c0-8.1-6.5-14.6-14.6-14.6V206.8z"/>
	<circle class="st0" cx="164.8" cy="220.9" r="14.1"/>
	<path class="st0" d="M164.8,206.8v0.5c3.8,0,7.2,1.5,9.6,4c2.5,2.5,4,5.9,4,9.6c0,3.8-1.5,7.2-4,9.6c-2.5,2.5-5.9,4-9.6,4
		c-3.8,0-7.2-1.5-9.6-4c-2.5-2.5-4-5.9-4-9.6c0-3.8,1.5-7.2,4-9.6c2.5-2.5,5.9-4,9.6-4V206.8v-0.5c-8.1,0-14.6,6.5-14.6,14.6
		c0,8.1,6.5,14.6,14.6,14.6c8.1,0,14.6-6.5,14.6-14.6c0-8.1-6.5-14.6-14.6-14.6V206.8z"/>
	<path class="st0" d="M49.9,18.4v18.8c0,8.8,7.2,16,16,16s16-7.2,16-16V18.4c0-8.8-7.2-16-16-16S49.9,9.6,49.9,18.4z M200.6,18.4
		v18.8c0,8.8,7.2,16,16,16c8.8,0,16-7.2,16-16V18.4c0-8.8-7.2-16-16-16C207.8,2.4,200.6,9.6,200.6,18.4z"/>
	<polyline class="st0" points="263.7,68.3 18.8,68.3 18.8,100.3 263.7,100.3 	"/>
</g>
</svg>
