<?xml version="1.0" encoding="utf-8"?>
<!-- Generator: Adobe Illustrator 26.1.0, SVG Export Plug-In . SVG Version: 6.00 Build 0)  -->
<svg version="1.1" id="Layer_2" xmlns="http://www.w3.org/2000/svg" xmlns:xlink="http://www.w3.org/1999/xlink" x="0px" y="0px"
	 viewBox="0 0 512 512" style="enable-background:new 0 0 512 512;" xml:space="preserve">
<style type="text/css">
	.st0{fill:none;stroke:#3E43CA;stroke-width:32;stroke-linejoin:round;}
	.st1{fill:none;stroke:#4E55FD;stroke-width:32;stroke-linejoin:round;}
	.st2{fill:#4E55FD;}
	.st3{fill:none;stroke:#4E55FD;stroke-miterlimit:10;}
	.st4{fill:#272A7F;}
	.st5{fill:none;stroke:#4E55FD;stroke-width:32;stroke-linecap:round;stroke-linejoin:round;}
</style>
<g>
	<path class="st0" d="M169.8,343.1c0,0-53,0-81.3-10c-40.5-14.3-67-54.2-67-102c0-56.5,43-88.6,110.3-90.7
		C129,79.1,187.7,36.8,255.6,36.8c54.5,0,126.5,26.6,128.6,122.9c63.1,2.1,107.6,53.4,107.6,96.3c0,44.8-22.8,87.8-76.3,87.8
		l-12.6,0.3"/>
	<path class="st1" d="M198.1,253.7h188.4c15.6,0,28.3,12.6,28.3,28.3v169.5c0,15.6-12.6,28.3-28.3,28.3H198.1
		c-15.6,0-28.3-12.6-28.3-28.3V281.9C169.8,266.3,182.5,253.7,198.1,253.7z"/>
	<circle class="st2" cx="315.8" cy="343.1" r="14.1"/>
	<circle class="st3" cx="315.8" cy="343.1" r="14.1"/>
	<circle class="st2" cx="362.9" cy="343.1" r="14.1"/>
	<circle class="st3" cx="362.9" cy="343.1" r="14.1"/>
	<circle class="st4" cx="315.8" cy="390.2" r="14.1"/>
	<circle class="st3" cx="315.8" cy="390.2" r="14.1"/>
	<circle class="st2" cx="362.9" cy="390.2" r="14.1"/>
	<circle class="st3" cx="362.9" cy="390.2" r="14.1"/>
	<circle class="st2" cx="221.6" cy="390.2" r="14.1"/>
	<circle class="st3" cx="221.6" cy="390.2" r="14.1"/>
	<circle class="st2" cx="268.7" cy="390.2" r="14.1"/>
	<circle class="st3" cx="268.7" cy="390.2" r="14.1"/>
	<circle class="st2" cx="221.6" cy="437.3" r="14.1"/>
	<circle class="st3" cx="221.6" cy="437.3" r="14.1"/>
	<circle class="st2" cx="268.7" cy="437.3" r="14.1"/>
	<circle class="st3" cx="268.7" cy="437.3" r="14.1"/>
	<circle class="st2" cx="315.8" cy="437.3" r="14.1"/>
	<circle class="st3" cx="315.8" cy="437.3" r="14.1"/>
	<path class="st5" d="M216.9,234.8v18.8 M367.6,234.8v18.8"/>
	<line class="st1" x1="414.7" y1="300.8" x2="169.8" y2="300.8"/>
</g>
</svg>
