<?xml version="1.0" encoding="utf-8"?>
<!-- Generator: Adobe Illustrator 26.1.0, SVG Export Plug-In . SVG Version: 6.00 Build 0)  -->
<svg version="1.1" id="Layer_2" xmlns="http://www.w3.org/2000/svg" xmlns:xlink="http://www.w3.org/1999/xlink" x="0px" y="0px"
	 viewBox="0 0 512 512" style="enable-background:new 0 0 512 512;" xml:space="preserve">
<style type="text/css">
	.st0{fill:none;stroke:#3E43CA;stroke-width:32;stroke-linejoin:round;}
	.st1{fill:none;stroke:#4E55FD;stroke-width:32;stroke-linejoin:round;}
	.st2{fill:#4E55FD;}
	.st3{fill:none;stroke:#4E55FD;stroke-miterlimit:10;}
	.st4{fill:#272A7F;}
	.st5{fill:none;stroke:#4E55FD;stroke-width:32;stroke-linecap:round;stroke-linejoin:round;}
</style>
<g>
	<path class="st0" d="M118.2,352C63.6,352,16,324.6,16,264c0-59.8,52.6-85.8,95.2-88C120,86.5,181.6,32,254,32
		c68.4,0,112.5,48.2,126.9,96c59.5,6,111.1,43.6,111.1,112c0,47.7-28,85-68.3,102"/>
	<path class="st1" d="M170.7,212.6h222.6c18.4,0,33.4,15,33.4,33.4v200.4c0,18.4-15,33.4-33.4,33.4H170.7c-18.4,0-33.4-15-33.4-33.4
		V246C137.3,227.5,152.3,212.6,170.7,212.6z"/>
	<circle class="st2" cx="309.8" cy="318.3" r="16.7"/>
	<circle class="st3" cx="309.8" cy="318.3" r="16.7"/>
	<circle class="st2" cx="365.5" cy="318.3" r="16.7"/>
	<circle class="st3" cx="365.5" cy="318.3" r="16.7"/>
	<circle class="st4" cx="309.8" cy="374" r="16.7"/>
	<circle class="st3" cx="309.8" cy="374" r="16.7"/>
	<circle class="st2" cx="365.5" cy="374" r="16.7"/>
	<circle class="st3" cx="365.5" cy="374" r="16.7"/>
	<circle class="st2" cx="198.5" cy="374" r="16.7"/>
	<circle class="st3" cx="198.5" cy="374" r="16.7"/>
	<circle class="st2" cx="254.2" cy="374" r="16.7"/>
	<circle class="st3" cx="254.2" cy="374" r="16.7"/>
	<circle class="st2" cx="198.5" cy="429.6" r="16.7"/>
	<circle class="st3" cx="198.5" cy="429.6" r="16.7"/>
	<circle class="st2" cx="254.2" cy="429.6" r="16.7"/>
	<circle class="st3" cx="254.2" cy="429.6" r="16.7"/>
	<circle class="st2" cx="309.8" cy="429.6" r="16.7"/>
	<circle class="st3" cx="309.8" cy="429.6" r="16.7"/>
	<path class="st5" d="M193,190.3v22.3 M371,190.3v22.3"/>
	<line class="st1" x1="426.7" y1="268.2" x2="137.3" y2="268.2"/>
</g>
</svg>
