<?xml version="1.0" encoding="UTF-8" standalone="no"?>
<svg width="16px" height="16px" viewBox="0 0 16 16" version="1.1" xmlns="http://www.w3.org/2000/svg" xmlns:xlink="http://www.w3.org/1999/xlink" xmlns:sketch="http://www.bohemiancoding.com/sketch/ns">
    <!-- Generator: Sketch 3.4.2 (15855) - http://www.bohemiancoding.com/sketch -->
    <title>menu-dots-gray-press</title>
    <desc>Created with Sketch.</desc>
    <defs></defs>
    <g id="Page-1" stroke="none" stroke-width="1" fill="none" fill-rule="evenodd" sketch:type="MSPage">
        <g id="SVG-Assets" sketch:type="MSArtboardGroup" transform="translate(-616.000000, -505.000000)" fill="#646C6C">
            <g id="menu-dots-gray-+-menu-dots-copy-5" sketch:type="MSLayerGroup" transform="translate(616.000000, 505.000000)">
                <path d="M1.95431592,7.04667016 C1.95431592,6.49384081 2.39697625,6.04568408 2.95327248,6.04568408 L3.95535936,6.04568408 C4.50706784,6.04568408 4.95431592,6.5001578 4.95431592,7.04667016 L4.95431592,7.95332984 C4.95431592,8.50615919 4.51165559,8.95431592 3.95535936,8.95431592 L2.95327248,8.95431592 C2.40156401,8.95431592 1.95431592,8.4998422 1.95431592,7.95332984 L1.95431592,7.04667016 Z M5.95431592,7.04667016 C5.95431592,6.49384081 6.39697625,6.04568408 6.95327248,6.04568408 L7.95535936,6.04568408 C8.50706784,6.04568408 8.95431592,6.5001578 8.95431592,7.04667016 L8.95431592,7.95332984 C8.95431592,8.50615919 8.51165559,8.95431592 7.95535936,8.95431592 L6.95327248,8.95431592 C6.40156401,8.95431592 5.95431592,8.4998422 5.95431592,7.95332984 L5.95431592,7.04667016 Z M9.95431592,7.04667016 C9.95431592,6.49384081 10.3969763,6.04568408 10.9532725,6.04568408 L11.9553594,6.04568408 C12.5070678,6.04568408 12.9543159,6.5001578 12.9543159,7.04667016 L12.9543159,7.95332984 C12.9543159,8.50615919 12.5116556,8.95431592 11.9553594,8.95431592 L10.9532725,8.95431592 C10.401564,8.95431592 9.95431592,8.4998422 9.95431592,7.95332984 L9.95431592,7.04667016 Z" id="menu-dots" sketch:type="MSShapeGroup" transform="translate(7.454316, 7.500000) rotate(-270.000000) translate(-7.454316, -7.500000) "></path>
            </g>
        </g>
    </g>
</svg>