<?xml version="1.0" encoding="UTF-8" standalone="no"?>
<svg width="16px" height="16px" viewBox="0 0 16 16" version="1.1" xmlns="http://www.w3.org/2000/svg" xmlns:xlink="http://www.w3.org/1999/xlink" xmlns:sketch="http://www.bohemiancoding.com/sketch/ns">
    <!-- Generator: Sketch 3.4.2 (15855) - http://www.bohemiancoding.com/sketch -->
    <title>modal-add</title>
    <desc>Created with Sketch.</desc>
    <defs></defs>
    <g id="Page-1" stroke="none" stroke-width="1" fill="none" fill-rule="evenodd" sketch:type="MSPage">
        <g id="SVG-Assets" sketch:type="MSArtboardGroup" transform="translate(-551.000000, -664.000000)">
            <g id="modal-add" sketch:type="MSLayerGroup" transform="translate(551.000000, 664.000000)">
                <path d="M8,14.8 L8,14.8 C11.7555363,14.8 14.8,11.7555363 14.8,8 C14.8,4.2444637 11.7555363,1.2 8,1.2 C4.2444637,1.2 1.2,4.2444637 1.2,8 C1.2,11.7555363 4.2444637,14.8 8,14.8 L8,14.8 Z M8,16 L8,16 C3.581722,16 0,12.418278 0,8 C0,3.581722 3.581722,1.13686838e-13 8,1.13686838e-13 C12.418278,1.13686838e-13 16,3.581722 16,8 C16,12.418278 12.418278,16 8,16 L8,16 Z" id="Shape" fill="#37B067" sketch:type="MSShapeGroup"></path>
                <path d="M9.00000001,3.99999999 L7.00000001,3.99999999 L7.00000001,6.99999999 L4.00000001,6.99999999 L4.00000001,8.99999999 L7.00000001,8.99999999 L7.00000001,12 L9.00000001,12 L9.00000001,8.99999999 L12,8.99999999 L12,6.99999999 L9.00000001,6.99999999 L9.00000001,3.99999999 Z" id="Rectangle-37" fill="#6DC590" sketch:type="MSShapeGroup"></path>
            </g>
        </g>
    </g>
</svg>