<?xml version="1.0" encoding="UTF-8"?>
<svg width="16px" height="16px" viewBox="0 0 16 16" version="1.1" xmlns="http://www.w3.org/2000/svg" xmlns:xlink="http://www.w3.org/1999/xlink">
    <!-- Generator: Sketch 41.2 (35397) - http://www.bohemiancoding.com/sketch -->
    <title>settings-mini-hover</title>
    <desc>Created with Sketch.</desc>
    <defs></defs>
    <g id="Artborts" stroke="none" stroke-width="1" fill="none" fill-rule="evenodd">
        <g id="Icons-and-Slices" transform="translate(-464.000000, -283.000000)" fill="#646C6C">
            <g id="settings-mini-+-settings-mini-copy" transform="translate(464.000000, 283.000000)">
                <g id="settings-mini" transform="translate(1.000000, 1.000000)">
                    <path d="M12.2068493,8.15528767 L14,8.15528767 L14,5.84471233 L12.2064658,5.84471233 C11.3146849,5.84471233 10.8678356,4.76613699 11.4987945,4.13517808 L12.7668493,2.86712329 L11.1328767,1.23315068 L9.86482192,2.50158904 C9.23386301,3.13216438 8.15528767,2.68531507 8.15528767,1.79353425 L8.15528767,0 L5.84471233,0 L5.84471233,1.79353425 C5.84471233,2.68531507 4.76613699,3.13216438 4.13517808,2.50158904 L2.86712329,1.23315068 L1.23315068,2.86712329 L2.50158904,4.13517808 C3.13216438,4.76613699 2.68531507,5.84471233 1.79353425,5.84471233 L0,5.84471233 L0,8.15528767 L1.79315068,8.15528767 C2.68531507,8.15528767 3.13216438,9.23386301 2.50158904,9.86482192 L1.23315068,11.1328767 L2.86712329,12.7668493 L4.13517808,11.498411 C4.76613699,10.8678356 5.84471233,11.3146849 5.84471233,12.2064658 L5.84471233,14 L8.15528767,14 L8.15528767,12.2064658 C8.15528767,11.3146849 9.23386301,10.8678356 9.86482192,11.498411 L11.1328767,12.7668493 L12.7668493,11.1328767 L11.4987945,9.86482192 C10.8678356,9.23386301 11.3146849,8.15528767 12.2068493,8.15528767 L12.2068493,8.15528767 Z M7.00005,9.579 C5.57584259,9.579 4.4211,8.42425741 4.4211,7.00005 C4.4211,5.57584259 5.57584259,4.4211 7.00005,4.4211 C8.42425741,4.4211 9.579,5.57584259 9.579,7.00005 C9.579,8.42425741 8.42425741,9.579 7.00005,9.579 L7.00005,9.579 Z"></path>
                </g>
            </g>
        </g>
    </g>
</svg>