<?xml version="1.0" encoding="UTF-8" standalone="no"?>
<svg width="44px" height="44px" viewBox="0 0 44 44" version="1.1" xmlns="http://www.w3.org/2000/svg" xmlns:xlink="http://www.w3.org/1999/xlink" xmlns:sketch="http://www.bohemiancoding.com/sketch/ns">
    <!-- Generator: Sketch 3.3.3 (12072) - http://www.bohemiancoding.com/sketch -->
    <title>table-large-bg</title>
    <desc>Created with Sketch.</desc>
    <defs></defs>
    <g id="Page-1" stroke="none" stroke-width="1" fill="none" fill-rule="evenodd" sketch:type="MSPage">
        <g id="Icons" sketch:type="MSArtboardGroup" transform="translate(-398.000000, -205.000000)">
            <g id="table-large-white-nobg-+-Rectangle-501-+-table-large-white-nobg" sketch:type="MSLayerGroup" transform="translate(398.000000, 205.000000)">
                <g id="table-large-white-nobg" transform="translate(8.000000, 13.000000)" sketch:type="MSShapeGroup">
                    <g id="Tables-Icon">
                        <path d="M26,18 L26,2 L28,2 L28,19 L28,20 L2,20 L2,18 L26,18 L26,18 Z M0,0 L0,2 L28,2 L28,0 L0,0 Z M0,2 L0,20 L2,20 L2,2 L0,2 Z M15,3 L15,7 L25,7 L25,3 L15,3 Z M3,3 L3,7 L14,7 L14,3 L3,3 Z" id="Rectangle-134" fill="#22A3C0"></path>
                        <path id="Rectangle-134-copy-2" fill="#FFFFFF"></path>
                        <path d="M15,8 L15,12 L25,12 L25,8 L15,8 Z M3,8 L3,12 L14,12 L14,8 L3,8 Z M15,13 L15,17 L25,17 L25,13 L15,13 Z M3,13 L3,17 L14,17 L14,13 L3,13 Z" id="Rectangle-134-copy-2" opacity="0.492826705" fill="#77C7D9"></path>
                    </g>
                </g>
            </g>
        </g>
    </g>
</svg>