<?xml version="1.0" encoding="utf-8"?>
<!-- Generator: Adobe Illustrator 27.2.0, SVG Export Plug-In . SVG Version: 6.00 Build 0)  -->
<svg version="1.1" id="Layer_1" xmlns="http://www.w3.org/2000/svg" xmlns:xlink="http://www.w3.org/1999/xlink" x="0px" y="0px"
	 viewBox="0 0 233 47" style="enable-background:new 0 0 233 47;" xml:space="preserve">
<g>
	<path d="M232.5,21.3v-2.9h-3.5v-4.2h-2.9v4.2h-2.7v2.9h2.7v8.4c0,2.5,2,4.4,4.4,4.4c0,0,0,0,0,0h1.9v-2.9h-1.9
		c-0.8,0-1.5-0.7-1.5-1.5v-8.4L232.5,21.3L232.5,21.3z M215.6,18.1c3.1,0,5.6,2.5,5.6,5.6c0,0,0,0,0,0v4.7c0,3.1-2.5,5.6-5.6,5.6
		h-1.1c-3.1,0-5.6-2.5-5.6-5.6v-4.7c0-3.1,2.5-5.6,5.6-5.6L215.6,18.1L215.6,18.1z M211.8,23.7v4.7c0,1.5,1.2,2.7,2.7,2.7h1.1
		c1.5,0,2.7-1.2,2.7-2.7c0,0,0,0,0,0v-4.7c0-1.5-1.2-2.7-2.7-2.7c0,0,0,0,0,0h-1.1C213,21,211.8,22.2,211.8,23.7L211.8,23.7z
		 M205.6,23.8v4.7c0,3.1-2.5,5.6-5.6,5.6c0,0,0,0,0,0h-0.4c-1.3,0-2.5-0.4-3.5-1.2v6.3h-2.9V18.4h2.9v1c1-0.8,2.2-1.3,3.5-1.2h0.4
		C203.1,18.1,205.6,20.6,205.6,23.8z M202.7,23.8c0-1.5-1.2-2.7-2.7-2.7h-1.1c-1.5,0-2.7,1.2-2.7,2.7v4.7c0,1.5,1.2,2.7,2.7,2.7h1.1
		c1.5,0,2.7-1.2,2.7-2.7c0,0,0,0,0,0V23.8z M179.7,29c0.3,1.3,1.4,2.2,2.7,2.2h2c1.5,0,2.7-1.2,2.7-2.7c0-1.7-1-2.7-2.6-3.3l-2.7-1
		c-2.5-1-4.6-2.6-4.6-5.7c0-3.1,2.5-5.6,5.6-5.6c0,0,0,0,0,0h1.4c2.6,0,4.8,1.8,5.5,4.3l-2.8,0.8c-0.2-1.3-1.4-2.2-2.6-2.2h-1.4
		c-1.5,0-2.7,1.2-2.7,2.7c0,0,0,0,0,0c0,1.2,0.4,2.1,2.8,3l2.7,1c2.7,1.1,4.4,3.2,4.4,6c0,3.1-2.5,5.6-5.6,5.6h-2
		c-2.6,0-4.9-1.8-5.5-4.3C176.8,29.9,179.7,29,179.7,29z M174.1,21.3v-2.9h-3.5v-4.2h-2.9v4.2H165v2.9h2.7v8.4c0,2.5,2,4.4,4.4,4.4
		l0,0h1.9v-2.9h-1.9c-0.8,0-1.5-0.7-1.5-1.5v-8.4L174.1,21.3L174.1,21.3z M162.5,23.8v10.1h-2.9V23.7c0-1.5-1.2-2.7-2.7-2.7
		c0,0,0,0,0,0h-1.1c-1.5,0-2.7,1.2-2.7,2.7v10.1h-2.9V13.1h2.9v6.3c1-0.8,2.2-1.3,3.5-1.2h0.4C159.9,18.1,162.5,20.6,162.5,23.8
		C162.5,23.7,162.5,23.7,162.5,23.8L162.5,23.8z M146.3,18.4v15.4c0,3.1-2.5,5.6-5.6,5.6h-1.2c-2.6,0-4.8-1.8-5.5-4.3l2.8-0.8
		c0.3,1.2,1.4,2.2,2.7,2.2h1.2c1.5,0,2.7-1.2,2.7-2.7V32c-1,0.8-2.2,1.3-3.5,1.2h-0.4c-3.1,0-5.6-2.5-5.6-5.6v-3.8
		c0-3.1,2.5-5.6,5.6-5.6h0.4c1.3,0,2.5,0.5,3.5,1.2v-0.9L146.3,18.4L146.3,18.4L146.3,18.4z M143.4,27.5v-3.8c0-1.5-1.2-2.7-2.7-2.7
		c0,0,0,0,0,0h-1.1c-1.5,0-2.7,1.2-2.7,2.7v3.8c0,1.5,1.2,2.7,2.7,2.7h1.1C142.2,30.3,143.4,29.1,143.4,27.5z M121.2,18.4v10.1
		c0,1.5,1.2,2.7,2.7,2.7c0,0,0,0,0,0h1.1c1.5,0,2.7-1.2,2.7-2.7c0,0,0,0,0,0V18.4h2.9v10.1c0,3.1-2.5,5.6-5.6,5.6c0,0,0,0,0,0h-1.1
		c-3.1,0-5.6-2.5-5.6-5.6c0,0,0,0,0,0V18.4H121.2z M109.2,18.1c3.1,0,5.6,2.5,5.6,5.6c0,0,0,0,0,0v4.7c0,3.1-2.5,5.6-5.6,5.6h-1.1
		c-3.1,0-5.6-2.5-5.6-5.6v-4.7c0-3.1,2.5-5.6,5.6-5.6L109.2,18.1L109.2,18.1z M105.4,23.7v4.7c0,1.5,1.2,2.7,2.7,2.7h1.1
		c1.5,0,2.7-1.2,2.7-2.7c0,0,0,0,0,0v-4.7c0-1.5-1.2-2.7-2.7-2.7c0,0,0,0,0,0h-1.1C106.6,21,105.4,22.2,105.4,23.7L105.4,23.7z
		 M99.1,23.8v10.1h-2.9V23.7c0-1.5-1.2-2.7-2.7-2.7c0,0,0,0,0,0h-1.1c-1.5,0-2.7,1.2-2.7,2.7v10.1h-2.9V13.1h2.9v6.3
		c1-0.8,2.2-1.3,3.5-1.2h0.4C96.6,18.1,99.1,20.6,99.1,23.8C99.1,23.7,99.1,23.7,99.1,23.8L99.1,23.8z M83.6,13.1V16h-5.8v17.9h-2.9
		V16H69v-2.9L83.6,13.1z"/>
	<circle cx="41.2" cy="41.1" r="5.8"/>
	<path d="M46.6,11.9H0.5v2.9h15.9v31.7h2.9V14.8h2.9v31.7H25V14.8h2.9v31.7h2.9V14.8h15.9V11.9z M0.5,6.2h46.1v2.9H0.5V6.2z
		 M0.5,0.4h46.1v2.9H0.5V0.4z"/>
</g>
</svg>
